#N canvas 645 82 469 567 10;
#X obj 109 133 f;
#X obj 68 109 t f b;
#X obj 68 133 t f f;
#X obj 68 182 abs;
#X obj 68 160 -;
#X obj 206 132 f;
#X obj 165 108 t f b;
#X obj 165 132 t f f;
#X obj 165 181 abs;
#X obj 165 159 -;
#X obj 131 242 +;
#X obj 165 202 t b f;
#X obj 131 263 > 0;
#X obj 68 86 f;
#X obj 165 86 f;
#X obj 44 14 inlet;
#X obj 86 14 r Xraw;
#X obj 183 14 r Yraw;
#X obj 131 284 change;
#X obj 203 405 f;
#X obj 233 405 + 1;
#X msg 166 332 0;
#X obj 131 364 metro 10;
#X obj 131 305 sel 0 1;
#X msg 193 472 0;
#X msg 154 473 1;
#X obj 154 506 change;
#X obj 361 14 inlet;
#X obj 68 49 metro 100;
#X obj 154 529 outlet;
#X obj 203 435 moses \$1;
#X text 191 305 au contact le metro est init;
#X connect 0 0 4 1;
#X connect 1 0 2 0;
#X connect 1 1 0 0;
#X connect 2 0 4 0;
#X connect 2 1 0 1;
#X connect 3 0 10 0;
#X connect 4 0 3 0;
#X connect 5 0 9 1;
#X connect 6 0 7 0;
#X connect 6 1 5 0;
#X connect 7 0 9 0;
#X connect 7 1 5 1;
#X connect 8 0 11 0;
#X connect 9 0 8 0;
#X connect 10 0 12 0;
#X connect 11 0 10 0;
#X connect 11 1 10 1;
#X connect 12 0 18 0;
#X connect 13 0 1 0;
#X connect 14 0 6 0;
#X connect 15 0 28 0;
#X connect 16 0 13 1;
#X connect 17 0 14 1;
#X connect 18 0 23 0;
#X connect 19 0 20 0;
#X connect 19 0 30 0;
#X connect 20 0 19 1;
#X connect 21 0 22 0;
#X connect 21 0 19 0;
#X connect 22 0 19 0;
#X connect 23 0 22 0;
#X connect 23 1 21 0;
#X connect 23 1 25 0;
#X connect 24 0 22 0;
#X connect 24 0 26 0;
#X connect 25 0 26 0;
#X connect 26 0 29 0;
#X connect 27 0 30 1;
#X connect 28 0 13 0;
#X connect 28 0 14 0;
#X connect 30 1 24 0;
