#N canvas 50 82 555 614 10;
#X obj 66 461 noteout;
#N canvas 884 387 274 328 mode 0;
#X obj 37 33 % 12;
#X msg 37 82 0;
#X msg 88 104 4;
#X msg 139 128 7;
#X msg 190 154 9;
#X obj 10 -34 inlet;
#X obj 9 249 outlet;
#X obj 10 -9 t f f;
#X obj 139 102 split 7 8;
#X obj 190 125 split 9 11;
#X obj 88 79 split 4 6;
#X obj 37 56 split 0 3;
#X obj 9 212 i;
#X obj 9 189 + 40;
#X obj 56 249 nbx 7 17 -1e+37 1e+37 0 0 empty empty empty 0 -6 0 10
-257985 -1 -1 40 256;
#X obj 49 -34 nbx 5 14 -1e+37 1e+37 0 0 empty empty empty 0 -8 0 10
-262144 -1 -1 0 256;
#X connect 0 0 11 0;
#X connect 1 0 13 1;
#X connect 2 0 13 1;
#X connect 3 0 13 1;
#X connect 4 0 13 1;
#X connect 5 0 7 0;
#X connect 7 0 13 0;
#X connect 7 1 0 0;
#X connect 8 0 3 0;
#X connect 8 1 9 0;
#X connect 9 0 4 0;
#X connect 10 0 2 0;
#X connect 10 1 8 0;
#X connect 11 0 1 0;
#X connect 11 1 10 0;
#X connect 12 0 6 0;
#X connect 12 0 14 0;
#X connect 13 0 12 0;
#X connect 15 0 7 0;
#X restore 65 314 pd mode;
#N canvas 461 191 269 399 pitch_play 0;
#X obj -40 264 outlet;
#X obj 60 -14 int;
#X obj 60 40 sel 0 1 2 3 4 5;
#X obj 60 -36 * 7;
#X obj -25 -37 * 127;
#X obj 60 181 change;
#X obj -40 241 f;
#X obj -25 -59 r tissuX;
#X obj 60 -59 r tissuY;
#X obj -25 -16 int;
#X obj -40 217 metro 75;
#X obj 69 12 nbx 7 17 -1e+37 1e+37 0 0 empty empty empty 0 -6 0 10
-257985 -1 -1 0 256;
#X obj -14 11 nbx 7 17 -1e+37 1e+37 0 0 empty empty empty 0 -6 0 10
-257985 -1 -1 0 256;
#X obj -40 192 loadbang;
#X msg 60 64 40;
#X msg 74 84 60;
#X msg 91 104 90;
#X msg 103 124 150;
#X msg 118 144 200;
#X msg 132 164 300;
#X connect 1 0 2 0;
#X connect 1 0 11 0;
#X connect 2 0 14 0;
#X connect 2 1 15 0;
#X connect 2 2 16 0;
#X connect 2 3 17 0;
#X connect 2 4 18 0;
#X connect 2 5 19 0;
#X connect 3 0 1 0;
#X connect 4 0 9 0;
#X connect 5 0 10 1;
#X connect 6 0 0 0;
#X connect 7 0 4 0;
#X connect 8 0 3 0;
#X connect 9 0 6 1;
#X connect 9 0 12 0;
#X connect 10 0 6 0;
#X connect 13 0 10 0;
#X connect 14 0 5 0;
#X connect 15 0 5 0;
#X connect 16 0 5 0;
#X connect 17 0 5 0;
#X connect 18 0 5 0;
#X connect 19 0 5 0;
#X restore 65 293 pd pitch_play;
#N canvas 530 557 293 240 midi 0;
#X obj 136 114 pgmout;
#X obj 41 30 bng 15 250 50 0 empty empty empty 0 -6 0 8 -262144 -1
-1;
#X obj 92 60 + 1;
#X obj 54 60 i;
#X msg 169 86 1;
#X obj 112 8 hsl 128 15 0 127 0 0 empty empty empty -2 -6 0 8 -262144
-1 -1 2500 1;
#X obj 136 63 del 1000;
#X msg 136 86 102;
#X obj 136 40 loadbang;
#X obj 42 -11 tgl 15 0 empty empty empty 0 -6 0 10 -262144 -1 -1 0
1;
#X msg 6 29 0;
#X obj 103 36 - 1;
#X floatatom 97 153 5 0 0 0 - - -, f 5;
#X obj 98 126 % 128;
#X obj 42 8 metro 1000;
#X connect 1 0 3 0;
#X connect 2 0 3 1;
#X connect 3 0 2 0;
#X connect 3 0 13 0;
#X connect 4 0 0 1;
#X connect 5 0 3 0;
#X connect 6 0 7 0;
#X connect 7 0 0 0;
#X connect 8 0 6 0;
#X connect 9 0 14 0;
#X connect 10 0 3 0;
#X connect 13 0 0 0;
#X connect 13 0 12 0;
#X connect 14 0 1 0;
#X restore 65 504 pd midi out;
#X text 64 484 control le synth extern;
#X msg 65 152 \; pd dsp 1 \;;
#X msg 137 394 0;
#X obj 109 361 sel 1 0;
#X text 174 97 For median_n \$1;
#X obj 67 193 tgl 15 0 empty empty empty 0 -6 0 10 -258113 -1 -1 0
1;
#X obj 66 256 s contact;
#X obj 66 236 tgl 15 0 empty empty empty 0 -6 0 10 -4034 -1 -1 0 1
;
#X obj 164 193 tgl 15 0 empty empty empty 0 -6 0 10 -258113 -1 -1 0
1;
#X obj 64 16 cnv 15 435 20 empty empty empty 20 12 0 14 -260097 -66577
0;
#X obj 64 15 cnv 1 430 1 empty empty empty 0 -10 0 16 -66577 -66577
0;
#X text 65 19  Input filtering  XYi textile interface ;
#X text 384 19 Version: 10/05/2007;
#X text 159 53 For sort in filter ..;
#X obj 109 339 r contact;
#X obj 164 244 nbx 7 17 -1e+37 1e+37 0 0 empty empty empty 0 -6 0 10
-257985 -1 -1 0 256;
#X obj 257 244 nbx 7 17 -1e+37 1e+37 0 0 empty empty empty 0 -6 0 10
-257985 -1 -1 0 256;
#X obj 257 192 bng 15 250 50 0 empty empty RAZ 0 -6 0 10 -258113 -1
-1;
#X obj 4 296 tgl 15 0 empty empty empty 0 -6 0 10 -262144 -1 -1 0 1
;
#X msg 109 394 1500;
#X obj 66 426 makenote 90 100;
#X obj 65 75 import maxlib;
#X obj 65 97 import mapping;
#X msg 4 344 50;
#X obj 4 316 metro 300;
#X obj 67 215 contact 10;
#X obj 164 215 parcer;
#X text 166 75 For averege \$1;
#X obj 65 53 load zexy;
#X connect 1 0 24 0;
#X connect 2 0 1 0;
#X connect 6 0 24 1;
#X connect 7 0 23 0;
#X connect 7 1 6 0;
#X connect 9 0 29 0;
#X connect 11 0 10 0;
#X connect 12 0 30 0;
#X connect 18 0 7 0;
#X connect 21 0 30 1;
#X connect 22 0 28 0;
#X connect 23 0 24 1;
#X connect 24 0 0 0;
#X connect 24 1 0 1;
#X connect 27 0 24 0;
#X connect 28 0 27 0;
#X connect 29 0 11 0;
#X connect 30 0 19 0;
#X connect 30 1 20 0;
