#N canvas 124 22 343 296 10;
#X obj -141 -71 inlet;
#X text -71 -37 For Y;
#X text -179 157 Multiplier par 32 la prèmiere valeur puis y ajouter
la segonde;
#X obj -141 -38 moses 128;
#X obj -141 1 moses 64;
#X obj -49 -1 moses 192;
#X obj -96 27 - 64;
#X obj -49 27 - 128;
#X obj 2 26 - 192;
#X obj -49 51 << 5;
#X obj -96 88 +;
#X obj 2 87 +;
#X obj -141 27 << 5;
#X text -180 -37 for X;
#X obj -96 114 outlet;
#X obj 2 115 outlet;
#X connect 0 0 3 0;
#X connect 3 0 4 0;
#X connect 3 1 5 0;
#X connect 4 0 12 0;
#X connect 4 1 6 0;
#X connect 5 0 7 0;
#X connect 5 1 8 0;
#X connect 6 0 10 0;
#X connect 7 0 9 0;
#X connect 8 0 11 0;
#X connect 9 0 11 1;
#X connect 10 0 14 0;
#X connect 11 0 15 0;
#X connect 12 0 10 1;
