#N canvas 737 127 739 705 10;
#X obj 127 32 ctlin;
#X obj 127 53 swap;
#X obj 127 74 pack;
#X obj 127 116 route 24 25 26 27;
#X obj 234 209 +;
#X obj 285 193 << 7;
#X obj 285 150 max 1;
#X obj 285 171 min 126;
#X obj 234 150 max 1;
#X obj 234 171 min 126;
#X obj 234 700 outlet;
#X obj 176 32 inlet;
#X obj 127 95 spigot;
#X obj 26 209 +;
#X obj 77 192 << 7;
#X obj 77 149 max 1;
#X obj 77 170 min 126;
#X obj 26 149 max 1;
#X obj 26 170 min 126;
#X obj 26 670 outlet;
#X obj 26 230 moses 3700;
#X obj 234 230 moses 3700;
#X text 385 443 Comme nous utilisons un filtre moyeneur et médian pour
lisser les valeurs du capteur \, quand nous choisisons de toucher une
nouvelle zone \, la nouvelle position n'est pas immediate. Le lissage
ne permet pas de faire un déplacement d'un point A à un point B. Aussi
nous devons initialiser les filtres lors de chaque nouveau contacte
du tissu.;
#X obj 24 5 cnv 15 435 20 empty empty empty 20 12 0 14 -260097 -66577
0;
#X obj 24 25 cnv 1 430 1 empty empty empty 4 -10 2 12 -66577 -1 0;
#X obj 24 4 cnv 1 430 1 empty empty empty 0 -10 0 16 -66577 -66577
0;
#X text 25 8  Input filtering  XYi textile interface ;
#X obj 500 40 r tissuX;
#X msg 301 395 1;
#X msg 332 395 10;
#X obj 267 323 select 0 1;
#X obj 300 344 t b b;
#X msg 322 507 reset \$1;
#X obj 234 509 spigot;
#X msg 295 475 1;
#X msg 267 475 0;
#X obj 234 252 t f f f;
#X obj 295 453 t b f;
#X obj 332 374 del 1;
#X msg 93 395 1;
#X msg 124 395 10;
#X obj 59 323 select 0 1;
#X obj 92 344 t b b;
#X msg 114 507 reset \$1;
#X obj 26 509 spigot;
#X msg 87 475 1;
#X msg 59 475 0;
#X obj 26 252 t f f f;
#X obj 87 453 t b f;
#X obj 124 374 del 1;
#X obj 226 378 float;
#X obj 18 378 float;
#X text 344 8 Version: 10/05/2007;
#N canvas 0 50 287 174 bornes 0;
#X obj 21 6 inlet;
#X obj 137 6 inlet;
#X obj 67 6 loadbang;
#X obj 21 47 min;
#X obj 133 47 max;
#X obj 21 123 outlet;
#X obj 133 123 outlet;
#X obj 21 100 f;
#X obj 133 100 f;
#X msg 67 47 clear;
#X obj 178 6 import markex;
#X obj 67 70 oneshot;
#X connect 0 0 3 0;
#X connect 0 0 4 0;
#X connect 0 0 11 0;
#X connect 1 0 9 0;
#X connect 2 0 9 0;
#X connect 3 0 7 0;
#X connect 4 0 8 0;
#X connect 7 0 3 1;
#X connect 7 0 5 0;
#X connect 8 0 4 1;
#X connect 8 0 6 0;
#X connect 9 0 11 0;
#X connect 11 0 7 0;
#X connect 11 0 8 0;
#X restore 324 608 pd bornes;
#X obj 234 665 expr ($f1-$f2)/($f3-$f2);
#X obj 234 591 t f f;
#N canvas 0 50 217 188 bornes 0;
#X obj 21 6 inlet;
#X obj 137 6 inlet;
#X obj 67 6 loadbang;
#X obj 21 55 min;
#X obj 133 55 max;
#X obj 21 131 outlet;
#X obj 133 131 outlet;
#X obj 21 108 f;
#X obj 133 108 f;
#X obj 67 78 oneshot;
#X msg 67 55 clear;
#X connect 0 0 3 0;
#X connect 0 0 4 0;
#X connect 0 0 9 0;
#X connect 1 0 10 0;
#X connect 2 0 10 0;
#X connect 3 0 7 0;
#X connect 4 0 8 0;
#X connect 7 0 3 1;
#X connect 7 0 5 0;
#X connect 8 0 4 1;
#X connect 8 0 6 0;
#X connect 9 0 7 0;
#X connect 9 0 8 0;
#X connect 10 0 9 0;
#X restore 116 579 pd bornes;
#X obj 26 636 expr ($f1-$f2)/($f3-$f2);
#X obj 26 562 t f f;
#X obj 234 538 average 5;
#X obj 26 540 average 5;
#X obj 178 606 s Xmax;
#X obj 123 606 s Xmin;
#X text 412 666 Scale "X Y" to "0 1";
#X obj 499 290 timeroll;
#X obj 500 88 timeroll;
#X obj 234 431 median_n 1;
#X obj 26 430 median_n 1;
#X obj 500 66 spigot;
#X obj 566 40 tgl 15 0 empty empty empty 0 -6 0 10 -257985 -1 -1 0
1;
#X obj 415 66 spigot;
#X obj 479 40 tgl 15 0 empty empty empty 0 -6 0 10 -257985 -1 -1 0
1;
#X obj 499 268 spigot;
#X obj 565 242 tgl 15 0 empty empty empty 0 -6 0 10 -257985 -1 -1 0
1;
#X obj 414 268 spigot;
#X obj 478 242 tgl 15 0 empty empty empty 0 -6 0 10 -257985 -1 -1 0
1;
#X obj 414 289 / 3000;
#X obj 415 88 / 3000;
#X obj 499 242 r tissuY;
#X obj 279 33 inlet;
#X obj 384 583 r XY_INIT;
#X obj 176 555 r XY_INIT;
#X obj 279 58 s XY_INIT;
#X obj 330 636 s Ymin;
#X obj 385 636 s Ymax;
#X obj 414 242 r raw_Y;
#X obj 415 40 r raw_X;
#X obj 280 274 s raw_Y;
#X obj 72 274 s raw_X;
#X obj 80 670 s out_X;
#X obj 287 700 s out_Y;
#X obj 59 301 r XY_CONTACT;
#X obj 267 301 r XY_CONTACT;
#X connect 0 0 1 0;
#X connect 0 1 1 1;
#X connect 1 0 2 0;
#X connect 1 1 2 1;
#X connect 2 0 12 0;
#X connect 3 0 15 0;
#X connect 3 1 17 0;
#X connect 3 2 6 0;
#X connect 3 3 8 0;
#X connect 4 0 21 0;
#X connect 5 0 4 1;
#X connect 6 0 7 0;
#X connect 7 0 5 0;
#X connect 8 0 9 0;
#X connect 9 0 4 0;
#X connect 11 0 12 1;
#X connect 12 0 3 0;
#X connect 13 0 20 0;
#X connect 14 0 13 1;
#X connect 15 0 16 0;
#X connect 16 0 14 0;
#X connect 17 0 18 0;
#X connect 18 0 13 0;
#X connect 20 0 47 0;
#X connect 21 0 36 0;
#X connect 27 0 68 0;
#X connect 28 0 66 1;
#X connect 29 0 66 1;
#X connect 30 0 28 0;
#X connect 30 0 35 0;
#X connect 30 1 31 0;
#X connect 31 0 50 0;
#X connect 31 1 38 0;
#X connect 32 0 59 0;
#X connect 33 0 59 0;
#X connect 34 0 33 1;
#X connect 35 0 33 1;
#X connect 36 0 66 0;
#X connect 36 1 50 1;
#X connect 36 2 87 0;
#X connect 37 0 34 0;
#X connect 37 1 32 0;
#X connect 38 0 29 0;
#X connect 39 0 67 1;
#X connect 40 0 67 1;
#X connect 41 0 39 0;
#X connect 41 0 46 0;
#X connect 41 1 42 0;
#X connect 42 0 51 0;
#X connect 42 1 49 0;
#X connect 43 0 60 0;
#X connect 44 0 60 0;
#X connect 45 0 44 1;
#X connect 46 0 44 1;
#X connect 47 0 67 0;
#X connect 47 1 51 1;
#X connect 47 2 88 0;
#X connect 48 0 45 0;
#X connect 48 1 43 0;
#X connect 49 0 40 0;
#X connect 50 0 37 0;
#X connect 51 0 48 0;
#X connect 53 0 54 1;
#X connect 53 0 83 0;
#X connect 53 1 54 2;
#X connect 53 1 84 0;
#X connect 54 0 10 0;
#X connect 54 0 90 0;
#X connect 55 0 54 0;
#X connect 55 1 53 0;
#X connect 56 0 57 1;
#X connect 56 0 62 0;
#X connect 56 1 57 2;
#X connect 56 1 61 0;
#X connect 57 0 19 0;
#X connect 57 0 89 0;
#X connect 58 0 57 0;
#X connect 58 1 56 0;
#X connect 59 0 55 0;
#X connect 60 0 58 0;
#X connect 66 0 33 0;
#X connect 67 0 44 0;
#X connect 68 0 65 0;
#X connect 69 0 68 1;
#X connect 70 0 77 0;
#X connect 71 0 70 1;
#X connect 72 0 64 0;
#X connect 73 0 72 1;
#X connect 74 0 76 0;
#X connect 75 0 74 1;
#X connect 76 0 64 0;
#X connect 77 0 65 0;
#X connect 78 0 72 0;
#X connect 79 0 82 0;
#X connect 80 0 53 1;
#X connect 81 0 56 1;
#X connect 85 0 74 0;
#X connect 86 0 70 0;
#X connect 91 0 41 0;
#X connect 92 0 30 0;
